<?xml version="1.0" encoding="UTF-8" standalone="no" ?>
<!DOCTYPE svg PUBLIC "-//W3C//DTD SVG 1.1//EN" "http://www.w3.org/Graphics/SVG/1.1/DTD/svg11.dtd">
<svg xmlns="http://www.w3.org/2000/svg" xmlns:xlink="http://www.w3.org/1999/xlink" version="1.1" width="400" height="400" viewBox="0 0 400 400" xml:space="preserve">
<desc>Created with Fabric.js 3.6.2</desc>
<defs>
</defs>
<g transform="matrix(3.33 0 0 3.33 200 200)" id="square-60"  >
<path style="stroke: none; stroke-width: 1; stroke-dasharray: none; stroke-linecap: butt; stroke-dashoffset: 0; stroke-linejoin: miter; stroke-miterlimit: 4; fill: rgb(66,66,66); fill-rule: evenodd; opacity: 1;"  transform=" translate(-930, -530)" d="M 902.995937 500 L 957.004063 500 C 958.658673 500 960 501.33731 960 502.995937 L 960 557.004063 C 960 558.658673 958.66269 560 957.004063 560 L 902.995937 560 C 901.341327 560 900 558.66269 900 557.004063 L 900 502.995937 C 900 501.341327 901.33731 500 902.995937 500 Z" stroke-linecap="round" />
</g>
<g transform="matrix(3.33 0 0 3.33 176.54 228.21)" id="square-60"  >
<path style="stroke: none; stroke-width: 1; stroke-dasharray: none; stroke-linecap: butt; stroke-dashoffset: 0; stroke-linejoin: miter; stroke-miterlimit: 4; fill: rgb(0,0,0); fill-opacity: 0.4; fill-rule: evenodd; opacity: 1;"  transform=" translate(-922.96, -524.46)" d="M 914.997969 546 L 902.995937 546 C 901.341327 546 900 544.66269 900 543.004063 L 900 531.511416 L 900 520.01877 L 917.093079 502.925691 L 940.250278 502.925691 L 945.921761 513.555525 L 943.059639 529.940361 L 927 546 L 914.997969 546 L 914.997969 546 Z" stroke-linecap="round" />
</g>
<g transform="matrix(3.33 0 0 3.33 200 200)" id="github"  >
<path style="stroke: none; stroke-width: 1; stroke-dasharray: none; stroke-linecap: butt; stroke-dashoffset: 0; stroke-linejoin: miter; stroke-miterlimit: 4; fill: rgb(255,255,255); fill-rule: evenodd; opacity: 1;"  transform=" translate(-921, -518)" d="M 916.425274 535.516889 C 916.425274 535.067173 916.409407 533.877227 916.40034 532.296831 C 911.265178 533.440294 910.181705 529.758899 910.181705 529.758899 C 909.3419 527.571909 908.131493 526.989719 908.131493 526.989719 C 906.455284 525.81488 908.258427 525.839283 908.258427 525.839283 C 910.111438 525.97292 911.08611 527.790376 911.08611 527.790376 C 912.732853 530.682734 915.406401 529.848378 916.459274 529.3638 C 916.627008 528.140155 917.104144 527.305798 917.631147 526.832841 C 913.531857 526.355236 909.221766 524.730682 909.221766 517.477126 C 909.221766 515.410989 909.941437 513.721359 911.122377 512.397777 C 910.933109 511.91901 910.298439 509.994645 911.303711 507.388152 C 911.303711 507.388152 912.85412 506.879172 916.37994 509.328786 C 917.852149 508.909284 919.432024 508.69779 921.002833 508.690817 C 922.570242 508.69779 924.148985 508.909284 925.624593 509.328786 C 929.148146 506.879172 930.696289 507.388152 930.696289 507.388152 C 931.703828 509.993483 931.070291 511.917848 930.87989 512.397777 C 932.063096 513.721359 932.7771 515.410989 932.7771 517.477126 C 932.7771 524.749274 928.460209 526.349426 924.347319 526.817735 C 925.011456 527.402249 925.600793 528.557333 925.600793 530.323659 C 925.600793 532.854618 925.576993 534.896351 925.576993 535.516889 C 925.576993 536.023545 925.910195 536.611546 926.847467 536.426779 C 934.176775 533.919061 939.461538 526.828193 939.461538 518.46836 C 939.461538 508.013339 931.194958 499.538462 920.999433 499.538462 C 910.805042 499.538462 902.538462 508.013339 902.538462 518.46836 C 902.539595 526.830517 907.828892 533.926034 915.165 536.429103 C 916.087539 536.602249 916.425274 536.017735 916.425274 535.516889 Z" stroke-linecap="round" />
</g>
</svg>