<?xml version="1.0" encoding="UTF-8" standalone="no" ?>
<!DOCTYPE svg PUBLIC "-//W3C//DTD SVG 1.1//EN" "http://www.w3.org/Graphics/SVG/1.1/DTD/svg11.dtd">
<svg xmlns="http://www.w3.org/2000/svg" xmlns:xlink="http://www.w3.org/1999/xlink" version="1.1" width="400" height="400" viewBox="0 0 400 400" xml:space="preserve">
<desc>Created with Fabric.js 3.6.2</desc>
<defs>
</defs>
<g transform="matrix(4.17 0 0 4.17 200 200)" id="surface1"  >
<path style="stroke: none; stroke-width: 1; stroke-dasharray: none; stroke-linecap: butt; stroke-dashoffset: 0; stroke-linejoin: miter; stroke-miterlimit: 4; fill: rgb(224,224,224); fill-rule: nonzero; opacity: 1;"  transform=" translate(-24, -24)" d="M 5.5 40.5 L 42.5 40.5 C 44.433594 40.5 46 38.933594 46 37 L 46 11 C 46 9.066406 44.433594 7.5 42.5 7.5 L 5.5 7.5 C 3.566406 7.5 2 9.066406 2 11 L 2 37 C 2 38.933594 3.566406 40.5 5.5 40.5 Z" stroke-linecap="round" />
</g>
<g transform="matrix(4.17 0 0 4.17 200 200)" id="surface1"  >
<path style="stroke: none; stroke-width: 1; stroke-dasharray: none; stroke-linecap: butt; stroke-dashoffset: 0; stroke-linejoin: miter; stroke-miterlimit: 4; fill: rgb(217,217,217); fill-rule: nonzero; opacity: 1;"  transform=" translate(-24, -24)" d="M 26 40.5 L 42.5 40.5 C 44.433594 40.5 46 38.933594 46 37 L 46 11 C 46 9.066406 44.433594 7.5 42.5 7.5 L 5.5 7.5 C 3.566406 7.5 2 9.066406 2 11 Z" stroke-linecap="round" />
</g>
<g transform="matrix(4.17 0 0 4.17 209.89 208.33)" id="surface1"  >
<path style="stroke: none; stroke-width: 1; stroke-dasharray: none; stroke-linecap: butt; stroke-dashoffset: 0; stroke-linejoin: miter; stroke-miterlimit: 4; fill: rgb(238,238,238); fill-rule: nonzero; opacity: 1;"  transform=" translate(-26.37, -26)" d="M 6.746094 40.5 L 42.5 40.5 C 44.433594 40.5 46 38.933594 46 37 L 46 11.5 Z" stroke-linecap="round" />
</g>
<g transform="matrix(4.17 0 0 4.17 234.94 208.33)" id="surface1"  >
<path style="stroke: none; stroke-width: 1; stroke-dasharray: none; stroke-linecap: butt; stroke-dashoffset: 0; stroke-linejoin: miter; stroke-miterlimit: 4; fill: rgb(224,224,224); fill-rule: nonzero; opacity: 1;"  transform=" translate(-32.38, -26)" d="M 25.746094 40.5 L 42.5 40.5 C 44.433594 40.5 46 38.933594 46 37 L 46 11.5 L 18.769531 31.617188 Z" stroke-linecap="round" />
</g>
<g transform="matrix(4.17 0 0 4.17 200 204.08)" id="surface1"  >
<path style="stroke: none; stroke-width: 1; stroke-dasharray: none; stroke-linecap: butt; stroke-dashoffset: 0; stroke-linejoin: miter; stroke-miterlimit: 4; fill: rgb(202,55,55); fill-rule: nonzero; opacity: 1;"  transform=" translate(-24, -24.98)" d="M 42.5 9.5 L 5.5 9.5 C 3.566406 9.5 2 9.066406 2 11 L 2 37 C 2 38.933594 3.566406 40.5 5.5 40.5 L 7 40.5 L 7 12 L 41 12 L 41 40.5 L 42.5 40.5 C 44.433594 40.5 46 38.933594 46 37 L 46 11 C 46 9.066406 44.433594 9.5 42.5 9.5 Z" stroke-linecap="round" />
</g>
<g transform="matrix(4.17 0 0 4.17 200 173.45)" id="surface1"  >
<path style="stroke: none; stroke-width: 1; stroke-dasharray: none; stroke-linecap: butt; stroke-dashoffset: 0; stroke-linejoin: miter; stroke-miterlimit: 4; fill: rgb(245,245,245); fill-rule: nonzero; opacity: 1;"  transform=" translate(-24, -17.63)" d="M 42.5 7.5 L 5.5 7.5 C 3.566406 7.5 2 9.035156 2 11 C 2 12.207031 3.519531 13.257813 3.519531 13.257813 L 24 27.757813 L 44.480469 13.257813 C 44.480469 13.257813 46 12.207031 46 11 C 46 9.035156 44.433594 7.5 42.5 7.5 Z" stroke-linecap="round" />
</g>
<g transform="matrix(4.17 0 0 4.17 200 173.62)" id="surface1"  >
<path style="stroke: none; stroke-width: 1; stroke-dasharray: none; stroke-linecap: butt; stroke-dashoffset: 0; stroke-linejoin: miter; stroke-miterlimit: 4; fill: rgb(232,79,75); fill-rule: nonzero; opacity: 1;"  transform=" translate(-24, -17.67)" d="M 43.246094 7.582031 L 24 21 L 4.753906 7.582031 C 3.179688 7.917969 2 9.296875 2 11 C 2 12.207031 3.519531 13.257813 3.519531 13.257813 L 24 27.757813 L 44.480469 13.257813 C 44.480469 13.257813 46 12.207031 46 11 C 46 9.296875 44.820313 7.917969 43.246094 7.582031 Z" stroke-linecap="round" />
</g>
</svg>