<?xml version="1.0" encoding="UTF-8" standalone="no" ?>
<!DOCTYPE svg PUBLIC "-//W3C//DTD SVG 1.1//EN" "http://www.w3.org/Graphics/SVG/1.1/DTD/svg11.dtd">
<svg xmlns="http://www.w3.org/2000/svg" xmlns:xlink="http://www.w3.org/1999/xlink" version="1.1" width="400" height="400" viewBox="0 0 400 400" xml:space="preserve">
<desc>Created with Fabric.js 3.6.2</desc>
<defs>
</defs>
<g transform="matrix(0.77 0 0 0.77 200 200)" id="_445047880"  >
<rect style="stroke: none; stroke-width: 1; stroke-dasharray: none; stroke-linecap: butt; stroke-dashoffset: 0; stroke-linejoin: miter; stroke-miterlimit: 4; fill: rgb(32,160,225); fill-rule: evenodd; opacity: 1;"  x="-130.5" y="-130.5" rx="28" ry="28" width="261" height="261" />
</g>
<g transform="matrix(0.77 0 0 0.77 204.98 206.13)" id="_445047880"  >
<path style="stroke: none; stroke-width: 1; stroke-dasharray: none; stroke-linecap: butt; stroke-dashoffset: 0; stroke-linejoin: miter; stroke-miterlimit: 4; fill: rgb(204,216,230); fill-rule: evenodd; opacity: 1;"  transform=" translate(-137, -138.5)" d="M 172 100 c 1 -2 3 -2 3 -5 c -4 0 -7 3 -9 4 l -67 42 l 13 41 c 2 -2 2 -4 2 -8 c 0 -2 1 -6 1 -8 l 0 -7 c 1 -1 1 -2 1 -4 c 0 -1 0 -2 0 -3 c 1 -2 2 -1 3 -3 c 15 -16 36 -34 53 -49 z" stroke-linecap="round" />
</g>
<g transform="matrix(0.77 0 0 0.77 200.12 200.01)" id="_445047880"  >
<path style="stroke: none; stroke-width: 1; stroke-dasharray: none; stroke-linecap: butt; stroke-dashoffset: 0; stroke-linejoin: miter; stroke-miterlimit: 4; fill: rgb(254,254,254); fill-rule: evenodd; opacity: 1;"  transform=" translate(-130.65, -130.51)" d="M 66 129 l 33 12 l 70 -44 c 2 -1 4 -2 6 -2 c 0 3 -4 6 -6 8 c -15 13 -40 32 -53 47 l 12 9 c 2 0 7 5 8 6 c 2 1 10 7 11 9 c 2 0 2 1 3 2 l 10 7 c 4 3 8 8 15 3 l 22 -100 c 3 -17 -5 -14 -16 -10 l -112 45 c -4 2 -8 7 -3 8 z" stroke-linecap="round" />
</g>
<g transform="matrix(0.77 0 0 0.77 195.02 227.59)" id="_445047880"  >
<path style="stroke: none; stroke-width: 1; stroke-dasharray: none; stroke-linecap: butt; stroke-dashoffset: 0; stroke-linejoin: miter; stroke-miterlimit: 4; fill: rgb(171,189,213); fill-rule: evenodd; opacity: 1;"  transform=" translate(-124, -166.5)" d="M 112 182 l 1 1 c 2 0 4 -1 6 -3 l 17 -15 c -1 -1 -6 -6 -8 -6 l -12 -9 l -4 32 z" stroke-linecap="round" />
</g>
<g transform="matrix(0.77 0 0 0.77 243.3 228.35)" id="_445047880"  >
<path style="stroke: none; stroke-width: 1; stroke-dasharray: none; stroke-linecap: butt; stroke-dashoffset: 0; stroke-linejoin: miter; stroke-miterlimit: 4; fill: rgb(26,130,183); fill-rule: evenodd; opacity: 1;"  transform=" translate(-187, -167.5)" d="M 261 139 l -65 -65 c 2 2 2 5 1 12 l -22 100 c -7 5 -11 0 -15 -3 l -10 -7 c -1 -1 -1 -2 -3 -2 c -1 -2 -9 -8 -11 -9 l -17 15 c -2 1 -4 2 -6 3 l 79 78 l 41 0 l 28 -28 l 0 -94 z" stroke-linecap="round" />
</g>
<g transform="matrix(0.77 0 0 0.77 167.05 215.71)" id="_445047880"  >
<polygon style="stroke: none; stroke-width: 1; stroke-dasharray: none; stroke-linecap: butt; stroke-dashoffset: 0; stroke-linejoin: miter; stroke-miterlimit: 4; fill: rgb(26,130,183); fill-rule: evenodd; opacity: 1;"  points="-21.5,-22 21.5,22 11.5,-10 " />
</g>
</svg>